# xmcd CD database file
#
# Track frame offsets:
#	150
#	58683
#	112543
#	194299
#	263347
#
# Disc length: 4524 seconds
#
# Revision: 0
# Processed by: cddbd v1.4PL0 Copyright (c) Steve Scherf et al.
# Submitted via: CDex 1.50
#
DISCID=3311aa05
DTITLE=Harry Sheppard - Live at Cezanne
DYEAR=2003
DGENRE=Jazz
TTITLE0=Incan Dream
TTITLE1=Leaves
TTITLE2=Softly As In a Morning Sunrise
TTITLE3=Another Road
TTITLE4=Brasil
EXTD=YEAR: 2003
EXTT0=
EXTT1=
EXTT2=
EXTT3=
EXTT4=
PLAYORDER=
